<mxfile host="app.diagrams.net" agent="Mozilla/5.0 (Windows NT 10.0; Win64; x64) AppleWebKit/537.36 (KHTML, like Gecko) Chrome/137.0.0.0 Safari/537.36" version="27.1.6">
  <diagram name="Страница — 1" id="p5e2j1xKqDuZz7jTB8QU">
    <mxGraphModel dx="2253" dy="751" grid="1" gridSize="10" guides="1" tooltips="1" connect="1" arrows="1" fold="1" page="1" pageScale="1" pageWidth="827" pageHeight="1169" math="0" shadow="0">
      <root>
        <mxCell id="0" />
        <mxCell id="1" parent="0" />
        <mxCell id="iEDYJgWhZVjtFQfLYAJL-1" value="сайт для репетитора" style="text;html=1;align=center;verticalAlign=middle;whiteSpace=wrap;rounded=0;" vertex="1" parent="1">
          <mxGeometry width="60" height="30" as="geometry" />
        </mxCell>
        <mxCell id="iEDYJgWhZVjtFQfLYAJL-2" value="главная страничка" style="rounded=0;whiteSpace=wrap;html=1;" vertex="1" parent="1">
          <mxGeometry x="-390" y="110" width="120" height="60" as="geometry" />
        </mxCell>
        <mxCell id="iEDYJgWhZVjtFQfLYAJL-3" value="регистрация&amp;nbsp;" style="whiteSpace=wrap;html=1;" vertex="1" parent="1">
          <mxGeometry x="-190" y="110" width="120" height="60" as="geometry" />
        </mxCell>
        <mxCell id="iEDYJgWhZVjtFQfLYAJL-4" value="навигация" style="rounded=0;whiteSpace=wrap;html=1;" vertex="1" parent="1">
          <mxGeometry x="-390" y="190" width="120" height="60" as="geometry" />
        </mxCell>
        <mxCell id="iEDYJgWhZVjtFQfLYAJL-5" value="шапка" style="whiteSpace=wrap;html=1;" vertex="1" parent="1">
          <mxGeometry x="-390" y="260" width="120" height="60" as="geometry" />
        </mxCell>
        <mxCell id="iEDYJgWhZVjtFQfLYAJL-6" value="информ блок" style="whiteSpace=wrap;html=1;" vertex="1" parent="1">
          <mxGeometry x="-390" y="330" width="120" height="60" as="geometry" />
        </mxCell>
        <mxCell id="iEDYJgWhZVjtFQfLYAJL-7" value="блок с предметами" style="whiteSpace=wrap;html=1;" vertex="1" parent="1">
          <mxGeometry x="-390" y="400" width="120" height="60" as="geometry" />
        </mxCell>
        <mxCell id="iEDYJgWhZVjtFQfLYAJL-8" value="отзывы&amp;nbsp;" style="whiteSpace=wrap;html=1;" vertex="1" parent="1">
          <mxGeometry x="-390" y="470" width="120" height="60" as="geometry" />
        </mxCell>
        <mxCell id="iEDYJgWhZVjtFQfLYAJL-9" value="инструкция" style="whiteSpace=wrap;html=1;" vertex="1" parent="1">
          <mxGeometry x="-390" y="540" width="120" height="60" as="geometry" />
        </mxCell>
        <mxCell id="iEDYJgWhZVjtFQfLYAJL-10" value="чзв" style="whiteSpace=wrap;html=1;" vertex="1" parent="1">
          <mxGeometry x="-390" y="610" width="120" height="60" as="geometry" />
        </mxCell>
        <mxCell id="iEDYJgWhZVjtFQfLYAJL-11" value="подвал" style="whiteSpace=wrap;html=1;" vertex="1" parent="1">
          <mxGeometry x="-390" y="680" width="120" height="60" as="geometry" />
        </mxCell>
        <mxCell id="iEDYJgWhZVjtFQfLYAJL-12" value="фио" style="whiteSpace=wrap;html=1;" vertex="1" parent="1">
          <mxGeometry x="-190" y="190" width="120" height="60" as="geometry" />
        </mxCell>
        <mxCell id="iEDYJgWhZVjtFQfLYAJL-13" value="номер телефона" style="whiteSpace=wrap;html=1;" vertex="1" parent="1">
          <mxGeometry x="-190" y="270" width="120" height="60" as="geometry" />
        </mxCell>
        <mxCell id="iEDYJgWhZVjtFQfLYAJL-14" value="лк admin" style="whiteSpace=wrap;html=1;" vertex="1" parent="1">
          <mxGeometry x="10" y="110" width="120" height="60" as="geometry" />
        </mxCell>
        <mxCell id="iEDYJgWhZVjtFQfLYAJL-15" value="расписание&lt;div&gt;&lt;br&gt;&lt;/div&gt;" style="whiteSpace=wrap;html=1;" vertex="1" parent="1">
          <mxGeometry x="80" y="190" width="120" height="60" as="geometry" />
        </mxCell>
        <mxCell id="iEDYJgWhZVjtFQfLYAJL-16" value="лк user" style="whiteSpace=wrap;html=1;" vertex="1" parent="1">
          <mxGeometry x="150" y="110" width="120" height="60" as="geometry" />
        </mxCell>
        <mxCell id="iEDYJgWhZVjtFQfLYAJL-17" value="конспекты" style="whiteSpace=wrap;html=1;" vertex="1" parent="1">
          <mxGeometry x="200" y="260" width="120" height="60" as="geometry" />
        </mxCell>
        <mxCell id="iEDYJgWhZVjtFQfLYAJL-18" value="Курсы" style="whiteSpace=wrap;html=1;" vertex="1" parent="1">
          <mxGeometry x="200" y="320" width="120" height="60" as="geometry" />
        </mxCell>
        <mxCell id="iEDYJgWhZVjtFQfLYAJL-19" value="Магазин" style="whiteSpace=wrap;html=1;" vertex="1" parent="1">
          <mxGeometry x="80" y="280" width="120" height="60" as="geometry" />
        </mxCell>
        <mxCell id="iEDYJgWhZVjtFQfLYAJL-20" value="Игры задания статистика" style="whiteSpace=wrap;html=1;" vertex="1" parent="1">
          <mxGeometry x="80" y="390" width="120" height="60" as="geometry" />
        </mxCell>
        <mxCell id="iEDYJgWhZVjtFQfLYAJL-21" value="JS" style="whiteSpace=wrap;html=1;" vertex="1" parent="1">
          <mxGeometry x="500" y="80" width="120" height="60" as="geometry" />
        </mxCell>
        <mxCell id="iEDYJgWhZVjtFQfLYAJL-22" value="Тест без смс и регистрации" style="whiteSpace=wrap;html=1;" vertex="1" parent="1">
          <mxGeometry x="-580" y="110" width="120" height="60" as="geometry" />
        </mxCell>
      </root>
    </mxGraphModel>
  </diagram>
</mxfile>
